<?xml version="1.0" encoding="UTF-8" standalone="no"?>
<svg height="100%"
     style="fill-rule:nonzero;clip-rule:evenodd;stroke-linecap:round;stroke-linejoin:round;" version="1.1"
     viewBox="0 0 400 400" width="100%" xmlns="http://www.w3.org/2000/svg">
<defs>
<linearGradient gradientTransform="matrix(-400.977 337.985 -339.226 -402.449 402.579 61.2215)" gradientUnits="userSpaceOnUse" id="LinearGradient" x1="0" x2="1" y1="0" y2="0">
<stop stop-color="#005b7b"/>
<stop offset="1" stop-color="#012234"/>
</linearGradient>
</defs>
<g id="TaskLynx">
<g>
<path d="M1.45328e-14 199.997C1.45328e-14 89.5403 89.5431-0.00272475 200-0.00272475C310.457-0.00272475 400 89.5403 400 199.997C400 310.454 310.457 399.997 200 399.997C89.5431 399.997 1.45328e-14 310.454 1.45328e-14 199.997Z" fill="url(#LinearGradient)" fill-rule="nonzero"/>
</g>
<g>
<g>
<g>
<path d="M104.563 126.015C100.361 127.38 98.1006 131.913 99.4658 136.115L119.832 198.796C121.197 202.998 125.671 205.277 129.873 203.912C129.873 203.912 131.039 203.908 131.599 202.425C132.187 200.867 132.774 198.931 135.307 198.894C139.874 198.827 164.301 193.228 178.928 175.487C180.355 173.757 181.695 172.446 183.484 170.195C184.194 169.302 176.976 150.164 176.976 150.164C176.614 149.438 176.03 148.412 175.796 148.05C171.777 141.832 171.26 138.008 169.54 127.279C168.594 122.938 165.445 114.677 165.445 114.677C164.421 111.526 161.636 109.438 158.53 109.17C157.495 109.08 156.435 109.16 155.385 109.502L140.435 114.359C139.242 114.747 138.583 116.04 138.971 117.234C139.357 118.422 138.722 119.706 137.536 120.098L125.281 124.146C124.067 124.548 122.791 123.868 122.396 122.652C122.003 121.44 120.704 120.803 119.492 121.197L104.563 126.015ZM114.32 139.865C114.541 139.712 114.736 139.668 114.953 139.791C116.407 140.61 115.395 143.863 114.999 145.493C114.037 149.455 113.576 155.955 112.021 156.351C110.722 156.682 106.538 151.183 106.378 149.904C106.141 148.017 110.251 152.376 110.74 152.003C111.708 151.265 111.896 147.791 112.536 144.486C113.025 141.959 113.657 140.325 114.32 139.865ZM123.46 142.711C129.214 140.874 133.038 140.541 140.233 138.411C147.428 136.282 146.12 136.256 152.242 134.213C158.364 132.171 164.695 130.266 164.695 130.266C166.195 129.787 167.808 130.621 168.288 132.122C168.767 133.622 167.962 135.226 166.462 135.705C166.462 135.705 160.388 137.566 154.307 139.556C148.226 141.546 149.395 141.441 142.101 143.653C134.806 145.866 130.942 146.556 125.116 148.416C125.116 148.416 120.084 150.548 118.852 150.879C116.652 151.469 115.747 150.553 115.268 149.053C114.789 147.553 115.895 146.548 117.105 145.4C117.105 145.4 117.705 144.549 123.46 142.711ZM119.803 157.043C120.024 156.889 120.248 156.836 120.466 156.959C121.92 157.778 120.857 161.08 120.462 162.71C119.5 166.672 119.099 173.153 117.543 173.549C116.244 173.88 112.001 168.401 111.84 167.121C111.604 165.235 115.773 169.573 116.262 169.201C117.23 168.463 117.349 164.978 117.989 161.674C118.478 159.146 119.14 157.502 119.803 157.043ZM163.409 148.657C169.163 146.82 170.11 147.236 170.11 147.236C171.67 147.303 173.214 147.561 173.693 149.062C174.172 150.562 174.012 151.881 171.877 152.675C170.681 153.119 165.293 154.255 165.293 154.255C159.467 156.115 155.951 157.773 148.725 160.197C141.498 162.622 142.531 162.095 136.422 163.997C130.313 165.9 124.267 167.848 124.267 167.848C122.767 168.327 121.153 167.493 120.674 165.993C120.195 164.493 121.02 162.849 122.52 162.37C122.52 162.37 128.838 160.326 135.011 158.443C141.184 156.559 140.156 157.293 147.253 154.859C154.35 152.425 157.654 150.495 163.409 148.657ZM125.673 175.31C125.894 175.157 126.059 175.123 126.276 175.246C127.73 176.065 126.727 179.348 126.332 180.978C125.37 184.939 124.899 191.41 123.344 191.806C122.045 192.137 117.851 186.708 117.69 185.429C117.453 183.542 121.583 187.86 122.072 187.488C123.04 186.75 123.219 183.246 123.859 179.941C124.348 177.414 125.009 175.77 125.673 175.31ZM128.544 181.113C131.215 180.327 130.441 181.319 136.196 179.481C141.95 177.644 144.764 177.05 151.673 174.124C158.144 171.384 158.321 171.886 164.444 169.843C170.566 167.801 172.415 166.986 176.134 165.979C176.648 165.84 177.064 165.78 177.46 165.811C178.647 165.903 179.358 166.68 179.717 167.805C180.196 169.305 180.301 170.397 177.832 171.407C174.164 172.909 171.741 172.912 165.66 174.902C159.579 176.892 161.093 177.09 153.915 179.507C146.057 182.154 143.748 183.139 137.923 184.999C137.923 184.999 133.026 186.421 130.222 186.581C128.179 186.698 127.177 186.236 126.698 184.736C126.219 183.236 126.817 181.621 128.544 181.113Z" fill="#ffffff" fill-rule="nonzero"/>
<path d="M128.393 111.582C127.129 112.001 126.441 113.351 126.86 114.615C126.867 114.638 126.899 114.64 126.907 114.663L123.613 115.745C123.103 115.914 122.823 116.463 122.992 116.973L124.302 120.865C124.471 121.375 125.011 121.626 125.521 121.457L136.472 117.861C136.983 117.692 137.253 117.114 137.084 116.603L135.784 112.741C135.615 112.231 135.066 111.951 134.555 112.12L131.435 113.145C131.43 113.131 131.458 113.12 131.454 113.106C131.036 111.842 129.657 111.164 128.393 111.582Z" fill="#ffffff" fill-rule="nonzero"/>
</g>
<g>
<path d="M173.023 110.423C172.467 113.412 173.588 133.823 180.837 145.051C188.086 156.28 187.32 154.786 185.532 148.482C183.744 142.179 183.426 137.049 185.521 140.789C188.026 145.262 191.796 146.502 193.959 147.061C196.121 147.619 190.055 141.649 182.532 129.711C175.008 117.774 173.579 107.434 173.023 110.423Z" fill="#ffffff" fill-rule="nonzero"/>
<path d="M174.219 101.861C178.402 106.381 190.996 115.357 194.85 116.921C200.559 119.238 205.641 122.714 207.438 123.663C209.326 124.66 225.776 126.097 235.957 128.421C249.474 131.506 260.736 134.544 266.988 149.158C271.721 160.224 281.333 164.645 280.919 165.248C280.504 165.85 277.869 165.578 276.222 166.012C274.575 166.447 270.836 167.024 268.482 164.699C266.128 162.374 260.149 152.666 258.204 149.176C254.809 143.084 244.339 137.255 233.297 136.175C210.263 133.923 205.304 131.53 205.304 131.53C205.304 131.53 211.889 138.794 220.277 141.617C228.665 144.441 221.784 143.305 217.003 142.519C212.222 141.733 202.748 136.964 191.974 126.268C181.2 115.572 169.776 97.0611 174.219 101.861Z" fill="#ffffff" fill-rule="nonzero"/>
<path d="M204.484 106.62C204.484 106.62 207.885 112.569 211.944 116.94C215.859 121.155 216.504 122.154 224.331 123.093C234.863 124.355 232.979 125.119 227.081 121.423C221.184 117.726 205.009 106.896 204.484 106.62Z" fill="#ffffff" fill-rule="nonzero"/>
<path d="M249.719 152.903C253.264 155.106 253.443 157.965 254.813 159.111C256.183 160.257 256.556 161.949 254.809 161.17C253.061 160.39 250.93 161.872 246.871 159.546C242.812 157.22 242.521 153.707 240.81 152.653C239.1 151.599 238.195 149.451 240.877 150.476C243.56 151.502 246.175 150.7 249.719 152.903Z" fill="#ffffff" fill-rule="nonzero"/>
<path d="M275.083 170.107C278.6 170.699 281.136 167.931 278.339 171.809C275.541 175.688 274.132 180.699 272.905 182.748C271.679 184.797 266.137 190.913 259.789 190.654C253.441 190.395 249.715 188.342 248.225 188.286C246.736 188.229 251.662 187.783 255.928 186.954C260.194 186.125 261.586 183.18 263.45 183.102C265.314 183.024 252.274 181.702 242.726 183.479C233.178 185.256 222.318 189.408 217.34 193.416C212.362 197.423 218.842 190.843 223.642 187.071C227.925 183.705 247.583 172.04 262.98 174.013C275.127 175.57 274.041 175.626 272.35 172.28C270.66 168.933 269.491 169.166 275.083 170.107Z" fill="#ffffff" fill-rule="nonzero"/>
<path d="M173.162 208.325C176.12 207.869 191.389 201.786 199.096 188.842C205.937 177.353 215.207 163.351 228.068 161.368C219.251 163.014 208.544 180.554 203.762 190.159C193.041 211.697 170.205 208.781 173.162 208.325Z" fill="#ffffff" fill-rule="nonzero"/>
<path d="M139.118 203.864C143.686 203.864 168.132 198.238 182.768 180.506C195.758 164.767 212.997 145.801 232.858 145.801C219.175 146.233 198.946 170.201 189.5 183.577C168.319 213.572 134.551 203.864 139.118 203.864Z" fill="#ffffff" fill-rule="nonzero"/>
</g>
</g>
<g>
<g fill="#ffffff">
<path d="M109.668 233.053L118.065 233.053C118.353 233.053 118.595 233.155 118.79 233.359C118.985 233.563 119.082 233.8 119.082 234.07C119.082 234.352 118.985 234.589 118.79 234.781C118.595 234.973 118.353 235.069 118.065 235.069L109.668 235.069C109.398 235.069 109.161 234.967 108.957 234.763C108.753 234.559 108.651 234.322 108.651 234.052C108.651 233.77 108.753 233.533 108.957 233.341C109.161 233.149 109.398 233.053 109.668 233.053ZM113.385 227.959C113.703 227.959 113.961 228.065 114.159 228.278C114.357 228.491 114.456 228.748 114.456 229.048L114.456 247.12C114.456 247.798 114.549 248.303 114.735 248.636C114.921 248.969 115.16 249.188 115.451 249.293C115.742 249.398 116.028 249.451 116.31 249.451C116.508 249.451 116.682 249.419 116.832 249.356C116.982 249.293 117.159 249.262 117.363 249.262C117.573 249.262 117.758 249.35 117.917 249.527C118.076 249.704 118.155 249.925 118.155 250.189C118.155 250.519 117.96 250.796 117.57 251.021C117.18 251.246 116.727 251.359 116.211 251.359C115.977 251.359 115.644 251.344 115.212 251.314C114.78 251.284 114.339 251.152 113.889 250.918C113.439 250.684 113.061 250.28 112.755 249.707C112.449 249.134 112.296 248.305 112.296 247.219L112.296 229.048C112.296 228.748 112.403 228.491 112.616 228.278C112.829 228.065 113.085 227.959 113.385 227.959Z"/>
<path d="M143.162 232.981C143.48 232.981 143.74 233.086 143.941 233.296C144.142 233.506 144.242 233.764 144.242 234.07L144.242 250.27C144.242 250.57 144.137 250.826 143.927 251.039C143.717 251.252 143.462 251.359 143.162 251.359C142.844 251.359 142.585 251.252 142.384 251.039C142.183 250.826 142.082 250.57 142.082 250.27L142.082 245.995L142.712 245.725C142.712 246.379 142.526 247.058 142.154 247.763C141.782 248.468 141.272 249.118 140.624 249.712C139.976 250.306 139.213 250.789 138.334 251.161C137.455 251.533 136.505 251.719 135.485 251.719C133.865 251.719 132.415 251.297 131.134 250.454C129.853 249.611 128.845 248.462 128.11 247.007C127.375 245.552 127.007 243.907 127.007 242.071C127.007 240.211 127.379 238.567 128.123 237.139C128.867 235.711 129.877 234.589 131.152 233.773C132.427 232.957 133.859 232.549 135.449 232.549C136.481 232.549 137.447 232.727 138.347 233.084C139.247 233.441 140.033 233.932 140.705 234.556C141.377 235.18 141.901 235.891 142.276 236.689C142.651 237.487 142.838 238.324 142.838 239.2L142.082 238.642L142.082 234.07C142.082 233.77 142.183 233.513 142.384 233.3C142.585 233.087 142.844 232.981 143.162 232.981ZM135.674 249.703C136.946 249.703 138.077 249.371 139.067 248.708C140.057 248.045 140.833 247.136 141.394 245.981C141.955 244.826 142.235 243.523 142.235 242.071C142.235 240.667 141.955 239.396 141.394 238.259C140.833 237.122 140.057 236.222 139.067 235.559C138.077 234.896 136.946 234.565 135.674 234.565C134.426 234.565 133.307 234.887 132.317 235.532C131.327 236.177 130.547 237.064 129.977 238.192C129.407 239.32 129.122 240.613 129.122 242.071C129.122 243.523 129.403 244.826 129.964 245.981C130.525 247.136 131.3 248.045 132.29 248.708C133.28 249.371 134.408 249.703 135.674 249.703Z"/>
<path d="M153.859 248.452C153.673 248.152 153.588 247.868 153.603 247.601C153.618 247.334 153.763 247.108 154.039 246.922C154.225 246.772 154.449 246.706 154.71 246.724C154.971 246.742 155.206 246.865 155.416 247.093C156.058 247.933 156.84 248.608 157.761 249.118C158.682 249.628 159.781 249.883 161.059 249.883C161.743 249.877 162.414 249.764 163.071 249.545C163.728 249.326 164.272 248.981 164.704 248.51C165.136 248.039 165.352 247.438 165.352 246.706C165.352 245.962 165.136 245.366 164.704 244.919C164.272 244.472 163.713 244.114 163.026 243.844C162.339 243.574 161.608 243.343 160.834 243.151C160.018 242.935 159.229 242.69 158.467 242.417C157.705 242.144 157.027 241.798 156.433 241.378C155.839 240.958 155.365 240.445 155.011 239.839C154.657 239.233 154.48 238.501 154.48 237.643C154.48 236.641 154.753 235.756 155.299 234.988C155.845 234.22 156.594 233.621 157.545 233.192C158.496 232.763 159.568 232.549 160.762 232.549C161.38 232.549 162.034 232.625 162.724 232.778C163.414 232.931 164.095 233.188 164.767 233.548C165.439 233.908 166.045 234.403 166.585 235.033C166.795 235.231 166.902 235.469 166.905 235.748C166.908 236.027 166.783 236.281 166.531 236.509C166.333 236.653 166.111 236.72 165.865 236.711C165.619 236.702 165.412 236.608 165.244 236.428C164.674 235.774 163.993 235.282 163.201 234.952C162.409 234.622 161.551 234.457 160.627 234.457C159.943 234.457 159.292 234.566 158.674 234.785C158.056 235.004 157.546 235.342 157.144 235.798C156.742 236.254 156.541 236.854 156.541 237.598C156.577 238.294 156.816 238.862 157.257 239.303C157.698 239.744 158.287 240.107 159.025 240.392C159.763 240.677 160.588 240.943 161.5 241.189C162.274 241.381 163.011 241.604 163.71 241.859C164.409 242.114 165.03 242.44 165.573 242.836C166.116 243.232 166.548 243.731 166.869 244.334C167.19 244.937 167.35 245.695 167.35 246.607C167.35 247.669 167.058 248.582 166.473 249.347C165.888 250.112 165.105 250.699 164.124 251.107C163.143 251.515 162.052 251.719 160.852 251.719C159.562 251.719 158.308 251.468 157.09 250.967C155.872 250.466 154.795 249.628 153.859 248.452Z"/>
<path d="M178.092 251.359C177.774 251.359 177.515 251.252 177.314 251.039C177.113 250.826 177.012 250.57 177.012 250.27L177.012 225.808C177.012 225.508 177.113 225.251 177.314 225.038C177.515 224.825 177.774 224.719 178.092 224.719C178.41 224.719 178.67 224.825 178.871 225.038C179.072 225.251 179.172 225.508 179.172 225.808L179.172 250.27C179.172 250.57 179.072 250.826 178.871 251.039C178.67 251.252 178.41 251.359 178.092 251.359ZM190.323 232.909C190.605 232.909 190.851 233.02 191.061 233.242C191.271 233.464 191.376 233.71 191.376 233.98C191.376 234.286 191.241 234.556 190.971 234.79L178.893 245.086L178.794 242.548L189.576 233.242C189.798 233.02 190.047 232.909 190.323 232.909ZM190.62 251.35C190.32 251.35 190.053 251.227 189.819 250.981L181.62 242.251L183.249 240.793L191.376 249.469C191.598 249.697 191.709 249.967 191.709 250.279C191.709 250.615 191.576 250.877 191.309 251.066C191.042 251.255 190.812 251.35 190.62 251.35Z"/>
<path d="M203.261 250.27C203.261 250.57 203.155 250.826 202.942 251.039C202.729 251.252 202.472 251.359 202.172 251.359C201.86 251.359 201.604 251.252 201.403 251.039C201.202 250.826 201.101 250.57 201.101 250.27L201.101 225.808C201.101 225.508 201.208 225.251 201.421 225.038C201.634 224.825 201.89 224.719 202.19 224.719C202.508 224.719 202.766 224.825 202.964 225.038C203.162 225.251 203.261 225.508 203.261 225.808L203.261 250.27Z"/>
<path d="M227.323 232.639C227.641 232.639 227.901 232.745 228.102 232.958C228.303 233.171 228.403 233.428 228.403 233.728L228.403 249.595C228.403 251.533 228.021 253.169 227.256 254.504C226.491 255.839 225.457 256.849 224.155 257.533C222.853 258.217 221.374 258.559 219.718 258.559C218.698 258.559 217.752 258.445 216.879 258.217C216.006 257.989 215.293 257.701 214.741 257.353C214.435 257.185 214.212 256.979 214.071 256.736C213.93 256.493 213.916 256.234 214.03 255.958C214.156 255.64 214.347 255.422 214.602 255.305C214.857 255.188 215.113 255.199 215.371 255.337C215.773 255.547 216.363 255.809 217.14 256.124C217.917 256.439 218.794 256.597 219.772 256.597C221.092 256.597 222.235 256.316 223.201 255.755C224.167 255.194 224.917 254.393 225.451 253.352C225.985 252.311 226.252 251.071 226.252 249.631L226.252 247.03L226.495 247.921C226.141 248.659 225.631 249.313 224.965 249.883C224.299 250.453 223.542 250.901 222.693 251.228C221.844 251.555 220.942 251.719 219.988 251.719C218.554 251.719 217.363 251.425 216.415 250.837C215.467 250.249 214.761 249.437 214.296 248.402C213.831 247.367 213.598 246.16 213.598 244.78L213.598 233.728C213.598 233.428 213.699 233.171 213.9 232.958C214.101 232.745 214.36 232.639 214.678 232.639C214.996 232.639 215.256 232.745 215.457 232.958C215.658 233.171 215.758 233.428 215.758 233.728L215.758 244.456C215.758 246.124 216.127 247.415 216.865 248.33C217.603 249.245 218.8 249.703 220.456 249.703C221.476 249.703 222.423 249.46 223.296 248.974C224.169 248.488 224.878 247.841 225.424 247.034C225.97 246.227 226.243 245.368 226.243 244.456L226.243 233.728C226.243 233.428 226.344 233.171 226.545 232.958C226.746 232.745 227.005 232.639 227.323 232.639Z"/>
<path d="M247.758 232.549C249.336 232.549 250.596 232.867 251.538 233.503C252.48 234.139 253.161 234.998 253.581 236.081C254.001 237.164 254.211 238.372 254.211 239.704L254.211 250.27C254.211 250.57 254.106 250.826 253.896 251.039C253.686 251.252 253.431 251.359 253.131 251.359C252.813 251.359 252.554 251.252 252.353 251.039C252.152 250.826 252.051 250.57 252.051 250.27L252.051 239.812C252.051 238.84 251.895 237.959 251.583 237.17C251.271 236.381 250.766 235.75 250.067 235.276C249.368 234.802 248.436 234.565 247.272 234.565C246.24 234.565 245.264 234.802 244.343 235.276C243.422 235.75 242.67 236.381 242.088 237.17C241.506 237.959 241.215 238.84 241.215 239.812L241.215 250.27C241.215 250.57 241.11 250.826 240.9 251.039C240.69 251.252 240.435 251.359 240.135 251.359C239.817 251.359 239.558 251.252 239.357 251.039C239.156 250.826 239.055 250.57 239.055 250.27L239.055 234.16C239.055 233.86 239.16 233.603 239.37 233.39C239.58 233.177 239.835 233.071 240.135 233.071C240.453 233.071 240.713 233.177 240.914 233.39C241.115 233.603 241.215 233.86 241.215 234.16L241.215 237.193L240.405 238.462C240.459 237.712 240.708 236.981 241.152 236.27C241.596 235.559 242.166 234.923 242.862 234.362C243.558 233.801 244.331 233.359 245.18 233.035C246.029 232.711 246.888 232.549 247.758 232.549Z"/>
<path d="M264.368 232.774C264.722 232.774 265.013 232.93 265.241 233.242L277.994 249.748C278.144 249.934 278.219 250.15 278.219 250.396C278.219 250.69 278.113 250.945 277.9 251.161C277.687 251.377 277.439 251.485 277.157 251.485C276.821 251.485 276.521 251.326 276.257 251.008L263.477 234.529C263.327 234.343 263.252 234.127 263.252 233.881C263.252 233.563 263.366 233.299 263.594 233.089C263.822 232.879 264.08 232.774 264.368 232.774ZM264.377 251.476C264.131 251.476 263.896 251.389 263.671 251.215C263.446 251.041 263.333 250.798 263.333 250.486C263.333 250.24 263.414 250.018 263.576 249.82L269.678 242.008L270.866 243.745L265.241 251.035C265.019 251.329 264.731 251.476 264.377 251.476ZM277.148 232.774C277.472 232.774 277.724 232.868 277.904 233.057C278.084 233.246 278.174 233.467 278.174 233.719C278.174 233.833 278.152 233.951 278.107 234.074C278.062 234.197 277.997 234.313 277.913 234.421L271.829 242.395L270.695 240.667L276.257 233.26C276.521 232.936 276.818 232.774 277.148 232.774Z"/>
</g>
<g>
<g fill="#b2ebff">
<path d="M182.834 278.816C183.046 278.816 183.219 278.886 183.353 279.026C183.487 279.166 183.554 279.338 183.554 279.542L183.554 290.342C183.554 290.542 183.484 290.713 183.344 290.855C183.204 290.997 183.034 291.068 182.834 291.068C182.622 291.068 182.449 290.997 182.315 290.855C182.181 290.713 182.114 290.542 182.114 290.342L182.114 287.492L182.534 287.312C182.534 287.748 182.41 288.201 182.162 288.671C181.914 289.141 181.574 289.574 181.142 289.97C180.71 290.366 180.201 290.688 179.615 290.936C179.029 291.184 178.396 291.308 177.716 291.308C176.636 291.308 175.669 291.027 174.815 290.465C173.961 289.903 173.289 289.137 172.799 288.167C172.309 287.197 172.064 286.1 172.064 284.876C172.064 283.636 172.312 282.54 172.808 281.588C173.304 280.636 173.977 279.888 174.827 279.344C175.677 278.8 176.632 278.528 177.692 278.528C178.38 278.528 179.024 278.647 179.624 278.885C180.224 279.123 180.748 279.45 181.196 279.866C181.644 280.282 181.993 280.756 182.243 281.288C182.493 281.82 182.618 282.378 182.618 282.962L182.114 282.59L182.114 279.542C182.114 279.342 182.181 279.171 182.315 279.029C182.449 278.887 182.622 278.816 182.834 278.816ZM177.842 289.964C178.69 289.964 179.444 289.743 180.104 289.301C180.764 288.859 181.281 288.253 181.655 287.483C182.029 286.713 182.216 285.844 182.216 284.876C182.216 283.94 182.029 283.093 181.655 282.335C181.281 281.577 180.764 280.977 180.104 280.535C179.444 280.093 178.69 279.872 177.842 279.872C177.01 279.872 176.264 280.087 175.604 280.517C174.944 280.947 174.424 281.538 174.044 282.29C173.664 283.042 173.474 283.904 173.474 284.876C173.474 285.844 173.661 286.713 174.035 287.483C174.409 288.253 174.926 288.859 175.586 289.301C176.246 289.743 176.998 289.964 177.842 289.964Z"/>
<path d="M201.16 278.708C202.244 278.708 203.209 278.977 204.055 279.515C204.901 280.053 205.572 280.791 206.068 281.729C206.564 282.667 206.812 283.744 206.812 284.96C206.812 286.164 206.564 287.239 206.068 288.185C205.572 289.131 204.9 289.876 204.052 290.42C203.204 290.964 202.248 291.236 201.184 291.236C200.628 291.236 200.097 291.153 199.591 290.987C199.085 290.821 198.623 290.593 198.205 290.303C197.787 290.013 197.42 289.671 197.104 289.277C196.788 288.883 196.534 288.46 196.342 288.008L196.762 287.678L196.762 295.142C196.762 295.342 196.695 295.513 196.561 295.655C196.427 295.797 196.254 295.868 196.042 295.868C195.842 295.868 195.672 295.798 195.532 295.658C195.392 295.518 195.322 295.346 195.322 295.142L195.322 279.494C195.322 279.294 195.389 279.123 195.523 278.981C195.657 278.839 195.83 278.768 196.042 278.768C196.254 278.768 196.427 278.839 196.561 278.981C196.695 279.123 196.762 279.294 196.762 279.494L196.762 282.092L196.426 281.912C196.594 281.416 196.832 280.969 197.14 280.571C197.448 280.173 197.812 279.835 198.232 279.557C198.652 279.279 199.111 279.068 199.609 278.924C200.107 278.78 200.624 278.708 201.16 278.708ZM201.034 280.052C200.174 280.052 199.417 280.264 198.763 280.688C198.109 281.112 197.595 281.69 197.221 282.422C196.847 283.154 196.66 284 196.66 284.96C196.66 285.904 196.847 286.75 197.221 287.498C197.595 288.246 198.109 288.832 198.763 289.256C199.417 289.68 200.174 289.892 201.034 289.892C201.882 289.892 202.632 289.68 203.284 289.256C203.936 288.832 204.452 288.246 204.832 287.498C205.212 286.75 205.402 285.904 205.402 284.96C205.402 284.012 205.212 283.169 204.832 282.431C204.452 281.693 203.936 281.112 203.284 280.688C202.632 280.264 201.882 280.052 201.034 280.052Z"/>
<path d="M219.276 290.348C219.276 290.54 219.204 290.708 219.06 290.852C218.916 290.996 218.748 291.068 218.556 291.068C218.348 291.068 218.176 290.996 218.04 290.852C217.904 290.708 217.836 290.54 217.836 290.348L217.836 279.308C217.836 279.116 217.904 278.948 218.04 278.804C218.176 278.66 218.348 278.588 218.556 278.588C218.764 278.588 218.936 278.66 219.072 278.804C219.208 278.948 219.276 279.116 219.276 279.308L219.276 290.348ZM218.556 276.98C218.22 276.98 217.968 276.904 217.8 276.752C217.632 276.6 217.548 276.38 217.548 276.092L217.548 275.852C217.548 275.564 217.64 275.344 217.824 275.192C218.008 275.04 218.26 274.964 218.58 274.964C218.884 274.964 219.12 275.04 219.288 275.192C219.456 275.344 219.54 275.564 219.54 275.852L219.54 276.092C219.54 276.38 219.456 276.6 219.288 276.752C219.12 276.904 218.876 276.98 218.556 276.98Z"/>
</g>
</g>
</g>
</g>
</g>
</svg>
